<svg width="275" height="261" viewBox="0 0 275 261" fill="none" xmlns="http://www.w3.org/2000/svg">
<g clip-path="url(#clip0_9_13)">
<path d="M170.862 151.668H70.1328C66.717 151.664 63.4421 150.233 61.0267 147.69C58.6114 145.148 57.2527 141.7 57.2488 138.104V13.5638C57.2527 9.96769 58.6114 6.52005 61.0267 3.97722C63.4421 1.4344 66.717 0.00406214 70.1328 0H163.845L183.746 16.6994V138.104C183.742 141.7 182.384 145.148 179.968 147.69C177.553 150.233 174.278 151.664 170.862 151.668Z" fill="#D5D5D5"/>
<path d="M70.1328 3.90472C67.7003 3.90761 65.3682 4.92618 63.6481 6.73698C61.9281 8.54778 60.9606 11.0029 60.9578 13.5638V138.104C60.9606 140.665 61.9281 143.12 63.6481 144.931C65.3682 146.742 67.7003 147.76 70.1328 147.763H170.862C173.295 147.76 175.627 146.742 177.347 144.931C179.067 143.12 180.034 140.665 180.037 138.104V18.5806L162.548 3.90472H70.1328Z" fill="white"/>
<path d="M151.27 40.1177H105.41C105.128 40.1177 104.849 40.0592 104.589 39.9457C104.328 39.8322 104.092 39.6658 103.893 39.4561C103.693 39.2463 103.535 38.9973 103.427 38.7233C103.32 38.4493 103.264 38.1555 103.264 37.8589C103.264 37.5623 103.32 37.2686 103.427 36.9946C103.535 36.7205 103.693 36.4715 103.893 36.2618C104.092 36.052 104.328 35.8856 104.589 35.7721C104.849 35.6586 105.128 35.6002 105.41 35.6002H151.27C151.552 35.6002 151.831 35.6586 152.091 35.7721C152.352 35.8856 152.588 36.052 152.788 36.2618C152.987 36.4715 153.145 36.7205 153.253 36.9946C153.36 37.2686 153.416 37.5623 153.416 37.8589C153.416 38.1555 153.36 38.4493 153.253 38.7233C153.145 38.9973 152.987 39.2463 152.788 39.4561C152.588 39.6658 152.352 39.8322 152.091 39.9457C151.831 40.0592 151.552 40.1177 151.27 40.1177Z" fill="#AAA7A7"/>
<path d="M160.121 47.7409H105.41C104.841 47.7409 104.295 47.5029 103.893 47.0793C103.49 46.6557 103.264 46.0812 103.264 45.4822C103.264 44.8831 103.49 44.3086 103.893 43.885C104.295 43.4614 104.841 43.2234 105.41 43.2234H160.121C160.69 43.2234 161.235 43.4614 161.638 43.885C162.04 44.3086 162.266 44.8831 162.266 45.4822C162.266 46.0812 162.04 46.6557 161.638 47.0793C161.235 47.5029 160.69 47.7409 160.121 47.7409Z" fill="#AAA7A7"/>
<path d="M151.27 74.281H105.41C104.841 74.281 104.295 74.043 103.893 73.6194C103.49 73.1958 103.264 72.6213 103.264 72.0222C103.264 71.4232 103.49 70.8487 103.893 70.4251C104.295 70.0015 104.841 69.7635 105.41 69.7635H151.27C151.839 69.7635 152.385 70.0015 152.788 70.4251C153.19 70.8487 153.416 71.4232 153.416 72.0222C153.416 72.6213 153.19 73.1958 152.788 73.6194C152.385 74.043 151.839 74.281 151.27 74.281Z" fill="#AAA7A7"/>
<path d="M160.121 81.9042H105.41C104.841 81.9042 104.295 81.6662 103.893 81.2426C103.49 80.819 103.264 80.2445 103.264 79.6455C103.264 79.0464 103.49 78.4719 103.893 78.0483C104.295 77.6247 104.841 77.3867 105.41 77.3867H160.121C160.69 77.3867 161.235 77.6247 161.638 78.0483C162.04 78.4719 162.266 79.0464 162.266 79.6455C162.266 80.2445 162.04 80.819 161.638 81.2426C161.235 81.6662 160.69 81.9042 160.121 81.9042Z" fill="#AAA7A7"/>
<path d="M151.27 108.444H105.41C104.841 108.444 104.295 108.206 103.893 107.783C103.49 107.359 103.264 106.785 103.264 106.186C103.264 105.587 103.49 105.012 103.893 104.588C104.295 104.165 104.841 103.927 105.41 103.927H151.27C151.839 103.927 152.385 104.165 152.788 104.588C153.19 105.012 153.416 105.587 153.416 106.186C153.416 106.785 153.19 107.359 152.788 107.783C152.385 108.206 151.839 108.444 151.27 108.444Z" fill="#AAA7A7"/>
<path d="M160.121 116.068H105.41C104.841 116.068 104.295 115.83 103.893 115.406C103.49 114.982 103.264 114.408 103.264 113.809C103.264 113.21 103.49 112.635 103.893 112.212C104.295 111.788 104.841 111.55 105.41 111.55H160.121C160.69 111.55 161.235 111.788 161.638 112.212C162.04 112.635 162.266 113.21 162.266 113.809C162.266 114.408 162.04 114.982 161.638 115.406C161.235 115.83 160.69 116.068 160.121 116.068Z" fill="#AAA7A7"/>
<path d="M86.3121 49.6539C90.5002 49.6539 93.8953 46.0796 93.8953 41.6705C93.8953 37.2614 90.5002 33.6872 86.3121 33.6872C82.124 33.6872 78.7288 37.2614 78.7288 41.6705C78.7288 46.0796 82.124 49.6539 86.3121 49.6539Z" fill="#4BBF1E"/>
<path d="M85.5606 44.716C85.39 44.7163 85.224 44.6582 85.0875 44.5504L85.079 44.5437L83.2969 43.1085C83.1304 42.9739 83.0215 42.7752 82.9941 42.5561C82.9667 42.337 83.023 42.1154 83.1507 41.94C83.2784 41.7646 83.4671 41.6497 83.6752 41.6207C83.8833 41.5917 84.0939 41.6508 84.2606 41.7851L85.4149 42.717L88.1427 38.9706C88.206 38.8837 88.2848 38.8108 88.3748 38.7561C88.4648 38.7013 88.5642 38.6657 88.6673 38.6514C88.7704 38.6371 88.8751 38.6442 88.9755 38.6725C89.076 38.7008 89.1701 38.7496 89.2526 38.8162L89.2359 38.8412L89.2533 38.8164C89.4198 38.9511 89.5287 39.1498 89.5561 39.3689C89.5836 39.588 89.5273 39.8096 89.3997 39.9851L86.1913 44.3898C86.1171 44.4913 86.0216 44.5734 85.9124 44.6298C85.8031 44.6862 85.683 44.7153 85.5613 44.715L85.5606 44.716Z" fill="white"/>
<path d="M87.093 83.8172C91.2811 83.8172 94.6762 80.243 94.6762 75.8339C94.6762 71.4248 91.2811 67.8505 87.093 67.8505C82.9049 67.8505 79.5097 71.4248 79.5097 75.8339C79.5097 80.243 82.9049 83.8172 87.093 83.8172Z" fill="#AAA7A7"/>
<path d="M86.3121 117.981C90.5002 117.981 93.8953 114.406 93.8953 109.997C93.8953 105.588 90.5002 102.014 86.3121 102.014C82.124 102.014 78.7288 105.588 78.7288 109.997C78.7288 114.406 82.124 117.981 86.3121 117.981Z" fill="#AAA7A7"/>
<path d="M183.359 17.2369H167.77C166.632 17.2369 165.54 16.7609 164.735 15.9137C163.931 15.0665 163.479 13.9175 163.479 12.7194V0.597914C163.479 0.544845 163.493 0.492845 163.52 0.447888C163.546 0.40293 163.585 0.36683 163.63 0.343727C163.675 0.320624 163.726 0.311453 163.776 0.317267C163.826 0.323081 163.874 0.343643 163.913 0.376597L183.525 16.7332C183.569 16.7696 183.601 16.8194 183.616 16.8757C183.632 16.932 183.63 16.992 183.612 17.0473C183.594 17.1027 183.56 17.1507 183.514 17.1847C183.469 17.2186 183.415 17.2369 183.359 17.2369Z" fill="#D5D5D5"/>
<path d="M77.8302 175.002L18.2336 188.227C16.5113 188.607 14.7162 188.252 13.242 187.241C11.7678 186.229 10.735 184.643 10.3702 182.831L0.14346 131.753C-0.21754 129.94 0.119367 128.05 1.08027 126.499C2.04117 124.947 3.54759 123.859 5.26903 123.475L64.8657 110.25C66.5879 109.87 68.3831 110.225 69.8572 111.237C71.3314 112.248 72.3642 113.834 72.7291 115.646L82.9558 166.724C83.3168 168.537 82.9799 170.427 82.019 171.979C81.0581 173.531 79.5517 174.618 77.8302 175.002Z" fill="white"/>
<path d="M77.8302 175.002L18.2336 188.227C16.5113 188.607 14.7162 188.252 13.242 187.241C11.7678 186.229 10.735 184.643 10.3702 182.831L0.14346 131.753C-0.21754 129.94 0.119367 128.05 1.08027 126.499C2.04117 124.947 3.54759 123.859 5.26903 123.475L64.8657 110.25C66.5879 109.87 68.3831 110.225 69.8572 111.237C71.3314 112.248 72.3642 113.834 72.7291 115.646L82.9558 166.724C83.3168 168.537 82.9799 170.427 82.019 171.979C81.0581 173.531 79.5517 174.618 77.8302 175.002ZM5.43009 124.28C3.91117 124.618 2.58198 125.578 1.73413 126.947C0.886274 128.317 0.588996 129.984 0.907514 131.584L11.1342 182.662C11.4562 184.261 12.3675 185.66 13.6682 186.553C14.969 187.445 16.5529 187.758 18.0725 187.423L77.6692 174.198C79.1881 173.859 80.5173 172.9 81.3651 171.53C82.213 170.161 82.5103 168.493 82.1917 166.894L71.965 115.816C71.6431 114.217 70.7318 112.818 69.431 111.925C68.1303 111.032 66.5464 110.719 65.0267 111.055L5.43009 124.28Z" fill="#3F3D56"/>
<path d="M61.1628 127.092L31.0851 133.767C30.8219 133.831 30.5453 133.788 30.3113 133.645C30.0773 133.503 29.9032 133.273 29.8243 133.001C29.7883 132.859 29.78 132.711 29.8002 132.565C29.8203 132.42 29.8683 132.281 29.9413 132.155C30.0143 132.03 30.1108 131.922 30.2248 131.837C30.3389 131.753 30.4681 131.694 30.6046 131.663L61.2218 124.869C62.4173 125.578 62.0398 126.898 61.1628 127.092Z" fill="#AAA7A7"/>
<path d="M62.2748 132.646L32.1972 139.321C31.934 139.385 31.6574 139.342 31.4233 139.2C31.1893 139.057 31.0152 138.827 30.9364 138.555C30.9003 138.413 30.8921 138.265 30.9122 138.12C30.9323 137.974 30.9803 137.835 31.0533 137.71C31.1264 137.584 31.2228 137.476 31.3369 137.392C31.4509 137.307 31.5802 137.248 31.7167 137.217L62.3339 130.423C63.5293 131.133 63.1519 132.452 62.2748 132.646Z" fill="#AAA7A7"/>
<path d="M26.3283 143.926L17.1489 145.963C16.8491 146.029 16.5366 145.967 16.28 145.791C16.0234 145.615 15.8436 145.339 15.7801 145.024L13.4969 133.62C13.434 133.304 13.4926 132.975 13.6599 132.705C13.8271 132.435 14.0894 132.246 14.389 132.179L23.5684 130.142C23.8682 130.076 24.1806 130.138 24.4372 130.314C24.6938 130.49 24.8736 130.766 24.9371 131.081L27.2204 142.485C27.2833 142.801 27.2246 143.13 27.0574 143.4C26.8901 143.67 26.6279 143.859 26.3283 143.926Z" fill="#AAA7A7"/>
<path d="M64.4643 144.038L18.5603 154.224C18.2971 154.289 18.0205 154.245 17.7864 154.103C17.5524 153.961 17.3783 153.731 17.2995 153.459C17.2634 153.317 17.2552 153.168 17.2753 153.023C17.2954 152.878 17.3434 152.738 17.4164 152.613C17.4895 152.488 17.5859 152.38 17.7 152.295C17.814 152.211 17.9432 152.151 18.0798 152.121L64.5237 141.815C65.7191 142.524 65.3413 143.843 64.4643 144.038Z" fill="#AAA7A7"/>
<path d="M65.5767 149.594L19.6727 159.78C19.4095 159.844 19.1329 159.801 18.8988 159.659C18.6648 159.517 18.4907 159.286 18.4119 159.014C18.3758 158.872 18.3676 158.724 18.3877 158.579C18.4078 158.434 18.4558 158.294 18.5288 158.169C18.6019 158.044 18.6983 157.936 18.8124 157.851C18.9264 157.766 19.0556 157.707 19.1922 157.677L65.6361 147.371C66.8316 148.08 66.4537 149.399 65.5767 149.594Z" fill="#AAA7A7"/>
<path d="M66.6883 155.146L20.7843 165.332C20.5211 165.397 20.2445 165.353 20.0105 165.211C19.7764 165.069 19.6024 164.839 19.5235 164.566C19.4874 164.425 19.4792 164.276 19.4993 164.131C19.5194 163.986 19.5674 163.846 19.6405 163.721C19.7135 163.596 19.81 163.488 19.924 163.403C20.038 163.319 20.1673 163.259 20.3038 163.229L66.7477 152.923C67.9432 153.632 67.5653 154.951 66.6883 155.146Z" fill="#AAA7A7"/>
<path d="M67.8006 160.701L21.8966 170.888C21.6334 170.952 21.3568 170.909 21.1228 170.767C20.8887 170.624 20.7147 170.394 20.6358 170.122C20.5997 169.98 20.5915 169.832 20.6116 169.687C20.6317 169.541 20.6798 169.402 20.7528 169.277C20.8258 169.151 20.9223 169.043 21.0363 168.959C21.1504 168.874 21.2796 168.815 21.4161 168.784L67.86 158.478C69.0555 159.188 68.6776 160.507 67.8006 160.701Z" fill="#AAA7A7"/>
<path d="M68.9123 166.254L23.0083 176.44C22.7451 176.505 22.4685 176.461 22.2345 176.319C22.0004 176.177 21.8264 175.947 21.7475 175.674C21.7115 175.533 21.7032 175.384 21.7233 175.239C21.7435 175.094 21.7915 174.954 21.8645 174.829C21.9375 174.704 22.034 174.596 22.148 174.511C22.2621 174.427 22.3913 174.367 22.5278 174.337L68.9717 164.031C70.1672 164.74 69.7893 166.059 68.9123 166.254Z" fill="#AAA7A7"/>
<path d="M77.0154 140.825C76.9111 141.024 76.8219 141.232 76.7486 141.446L57.9562 146.355L54.687 142.795L48.938 147.287L54.1436 154.182C54.5642 154.739 55.145 155.137 55.7989 155.317C56.4529 155.497 57.1446 155.449 57.7703 155.18L78.1619 146.408C78.8321 146.927 79.6367 147.219 80.4685 147.246C81.3004 147.272 82.1202 147.031 82.8188 146.555C83.5174 146.079 84.0617 145.39 84.3794 144.58C84.6971 143.77 84.773 142.878 84.5972 142.021C84.4213 141.165 84.002 140.385 83.3949 139.786C82.7878 139.186 82.0218 138.796 81.1987 138.666C80.3757 138.536 79.5346 138.673 78.7873 139.059C78.04 139.445 77.422 140.061 77.0154 140.825Z" fill="#A0616A"/>
<path d="M12.87 184.514C13.4559 184.323 13.9949 184 14.4492 183.567C14.9035 183.133 15.262 182.6 15.4994 182.005C15.7369 181.41 15.8474 180.767 15.8234 180.122C15.7993 179.477 15.6412 178.845 15.3602 178.271L28.2927 140.43L19.3115 138.754L9.42342 176.478C8.53917 177.039 7.88107 177.922 7.57382 178.959C7.26657 179.997 7.33152 181.117 7.75636 182.108C8.18119 183.098 8.9364 183.89 9.87888 184.334C10.8214 184.777 11.8856 184.841 12.87 184.514Z" fill="#A0616A"/>
<path d="M26.6503 147.147L17.7828 143.564C17.5305 143.462 17.302 143.304 17.1129 143.101C16.9238 142.898 16.7786 142.654 16.6871 142.386C16.5956 142.118 16.56 141.833 16.5827 141.55C16.6053 141.266 16.6858 140.991 16.8185 140.743L21.4704 132.06C21.9733 130.704 22.9663 129.614 24.2318 129.027C25.4972 128.441 26.9319 128.407 28.2212 128.932C29.5106 129.458 30.5494 130.5 31.1099 131.831C31.6705 133.161 31.707 134.671 31.2115 136.03L29.1596 145.729C29.1008 146.007 28.9858 146.268 28.8225 146.495C28.6592 146.722 28.4514 146.909 28.2132 147.043C27.9751 147.178 27.7122 147.257 27.4425 147.274C27.1728 147.292 26.9026 147.249 26.6503 147.147Z" fill="#4BBF1E"/>
<path d="M46.6655 255.561L51.4521 255.56L53.729 236.124L46.6647 236.124L46.6655 255.561Z" fill="#A0616A"/>
<path d="M45.4444 253.915L54.8707 253.915H54.8711C55.66 253.915 56.4411 254.078 57.17 254.396C57.8988 254.714 58.5611 255.18 59.1189 255.767C59.6767 256.354 60.1192 257.052 60.4211 257.819C60.723 258.586 60.8784 259.409 60.8784 260.239V260.445L45.4447 260.445L45.4444 253.915Z" fill="#2F2E41"/>
<path d="M19.7262 255.561L24.5128 255.56L26.7897 236.124L19.7254 236.124L19.7262 255.561Z" fill="#A0616A"/>
<path d="M18.5051 253.915L27.9314 253.915H27.9318C28.7207 253.915 29.5019 254.078 30.2307 254.396C30.9596 254.714 31.6218 255.18 32.1796 255.767C32.7374 256.354 33.1799 257.052 33.4818 257.819C33.7837 258.586 33.9391 259.409 33.9391 260.239V260.445L18.5054 260.445L18.5051 253.915Z" fill="#2F2E41"/>
<path d="M24.744 247.738H18.6867C18.449 247.737 18.2137 247.687 17.9952 247.588C17.7766 247.49 17.5793 247.345 17.4153 247.164C17.2512 246.983 17.1238 246.769 17.0407 246.534C16.9576 246.3 16.9205 246.05 16.9318 245.8L19.809 180.722L19.9903 180.717L49.2406 179.914L54.9643 245.029C54.9864 245.273 54.962 245.52 54.8928 245.754C54.8236 245.988 54.7109 246.205 54.5612 246.393C54.4114 246.581 54.2277 246.736 54.0208 246.848C53.8138 246.96 53.5876 247.028 53.3555 247.048L46.5518 247.621C46.1244 247.657 45.6993 247.527 45.3565 247.255C45.0137 246.984 44.7769 246.591 44.6906 246.148L35.988 199.795C35.9642 199.654 35.8933 199.527 35.788 199.436C35.6828 199.346 35.5502 199.298 35.4144 199.302H35.4121C35.2758 199.299 35.1429 199.347 35.0378 199.438C34.9327 199.53 34.8624 199.658 34.8396 199.799L26.4678 246.245C26.3886 246.665 26.1735 247.044 25.8592 247.316C25.545 247.588 25.1509 247.737 24.744 247.738Z" fill="#2F2E41"/>
<path d="M35.8398 122.68C41.1357 122.68 45.429 118.161 45.429 112.585C45.429 107.01 41.1357 102.49 35.8398 102.49C30.5438 102.49 26.2505 107.01 26.2505 112.585C26.2505 118.161 30.5438 122.68 35.8398 122.68Z" fill="#A0616A"/>
<path d="M32.6244 188.348C28.0539 188.348 23.3595 187.083 19.4679 183.344C19.2608 183.146 19.1009 182.9 19.0012 182.625C18.9015 182.35 18.8648 182.054 18.8941 181.762C19.3107 177.822 21.3312 157.478 20.1933 143.889C19.9713 141.35 20.3126 138.792 21.1904 136.417C22.0683 134.041 23.4585 131.913 25.2515 130.2C27.0131 128.49 29.1279 127.236 31.429 126.534C33.7301 125.833 36.1546 125.704 38.5112 126.158C38.6306 126.18 38.75 126.204 38.8695 126.228C46.5467 127.792 51.8808 135.272 51.2772 143.627C50.3965 155.818 49.607 172.308 50.8467 181.633C50.898 182.015 50.8348 182.404 50.6657 182.745C50.4966 183.087 50.2303 183.365 49.9039 183.539C47.0831 185.04 40.0159 188.348 32.6244 188.348Z" fill="#4BBF1E"/>
<path d="M45.1372 147.873C44.9122 147.716 44.7221 147.509 44.58 147.267C44.4378 147.025 44.347 146.753 44.3136 146.471L43.1453 136.611C42.7744 135.209 42.9469 133.709 43.6248 132.44C44.3028 131.171 45.4309 130.238 46.7619 129.843C48.0928 129.449 49.518 129.626 50.7249 130.336C51.9319 131.047 52.8221 132.232 53.2004 133.632L57.0485 142.74C57.1583 143 57.2136 143.282 57.2106 143.567C57.2076 143.851 57.1464 144.132 57.0312 144.389C56.916 144.646 56.7494 144.875 56.5429 145.058C56.3363 145.241 56.0946 145.376 55.8343 145.452L46.6838 148.133C46.4235 148.209 46.1505 148.226 45.8836 148.181C45.6166 148.136 45.3621 148.031 45.1372 147.873Z" fill="#4BBF1E"/>
<path d="M32.4922 122.538C31.5846 122.556 30.6826 122.384 29.8384 122.032C29.467 121.882 29.0814 121.758 28.7106 121.607C25.4363 120.275 23.2794 116.604 23.2021 112.909C23.1249 109.215 24.9422 105.629 27.6409 103.266C30.3396 100.903 33.835 99.6894 37.3351 99.4089C41.1052 99.1067 45.3506 100.113 47.4573 103.419C48.0181 104.299 48.4103 105.366 48.078 106.428C47.9785 106.749 47.8007 107.036 47.5625 107.262C46.6217 108.143 45.6837 107.481 44.7246 107.422C43.4063 107.342 42.2223 108.465 41.7967 109.781C41.3711 111.097 41.5585 112.546 41.9021 113.888C42.1639 114.696 42.3289 115.535 42.3934 116.385C42.4211 116.812 42.3449 117.239 42.1719 117.626C41.999 118.013 41.7351 118.347 41.4052 118.596C40.5815 119.12 39.4996 118.817 38.6754 118.293C37.8511 117.77 37.1389 117.042 36.2486 116.657C35.3583 116.272 34.1621 116.358 33.6439 117.212C33.4792 117.522 33.3677 117.861 33.3146 118.212C32.85 120.441 32.9568 120.31 32.4922 122.538Z" fill="#2F2E41"/>
<path d="M74.8317 261H0.651166C0.547619 261 0.448313 260.957 0.375094 260.88C0.301876 260.803 0.260742 260.698 0.260742 260.589C0.260742 260.48 0.301876 260.375 0.375094 260.298C0.448313 260.221 0.547619 260.178 0.651166 260.178H74.8317C74.9353 260.178 75.0346 260.221 75.1078 260.298C75.181 260.375 75.2222 260.48 75.2222 260.589C75.2222 260.698 75.181 260.803 75.1078 260.88C75.0346 260.957 74.9353 261 74.8317 261Z" fill="#AAA7A7"/>
<path d="M264.712 176.177L211.592 207.545C210.056 208.45 208.243 208.676 206.549 208.174C204.855 207.672 203.419 206.484 202.556 204.869L178.299 159.342C177.44 157.726 177.225 155.816 177.702 154.033C178.178 152.249 179.307 150.738 180.841 149.83L233.961 118.462C235.497 117.557 237.311 117.331 239.005 117.833C240.699 118.334 242.134 119.523 242.997 121.137L267.254 166.664C268.113 168.281 268.328 170.191 267.852 171.974C267.375 173.757 266.246 175.269 264.712 176.177Z" fill="white"/>
<path d="M264.712 176.177L211.592 207.545C210.056 208.45 208.243 208.676 206.549 208.174C204.855 207.672 203.419 206.484 202.556 204.869L178.299 159.342C177.44 157.726 177.225 155.816 177.702 154.033C178.178 152.249 179.307 150.738 180.841 149.83L233.961 118.462C235.497 117.557 237.311 117.331 239.005 117.833C240.699 118.334 242.134 119.523 242.997 121.137L267.254 166.664C268.113 168.281 268.328 170.191 267.852 171.974C267.375 173.757 266.246 175.269 264.712 176.177ZM181.223 150.547C179.87 151.348 178.874 152.682 178.453 154.255C178.033 155.829 178.222 157.514 178.98 158.94L203.237 204.467C203.999 205.892 205.265 206.941 206.76 207.383C208.255 207.826 209.855 207.626 211.21 206.828L264.33 175.46C265.684 174.659 266.68 173.325 267.1 171.751C267.521 170.178 267.331 168.493 266.573 167.066L242.316 121.54C241.555 120.115 240.288 119.066 238.793 118.624C237.299 118.181 235.698 118.38 234.343 119.179L181.223 150.547Z" fill="#3F3D56"/>
<path d="M235.208 135.699L208.399 151.53C208.166 151.674 207.89 151.72 207.626 151.658C207.362 151.596 207.131 151.43 206.978 151.196C206.903 151.072 206.854 150.933 206.831 150.788C206.809 150.643 206.816 150.495 206.85 150.352C206.884 150.21 206.945 150.076 207.03 149.959C207.115 149.843 207.221 149.746 207.343 149.674L234.633 133.559C235.975 133.859 235.989 135.237 235.208 135.699Z" fill="#AAA7A7"/>
<path d="M237.845 140.649L211.036 156.48C210.803 156.625 210.527 156.67 210.264 156.608C210 156.546 209.768 156.381 209.616 156.146C209.541 156.022 209.491 155.883 209.469 155.738C209.447 155.593 209.453 155.445 209.488 155.303C209.522 155.16 209.583 155.027 209.668 154.91C209.753 154.793 209.859 154.696 209.981 154.624L237.271 138.509C238.613 138.81 238.627 140.188 237.845 140.649Z" fill="#AAA7A7"/>
<path d="M206.743 162.721L198.561 167.553C198.294 167.71 197.978 167.75 197.683 167.663C197.388 167.575 197.138 167.368 196.988 167.087L191.572 156.923C191.423 156.641 191.385 156.309 191.468 155.998C191.551 155.688 191.748 155.425 192.015 155.267L200.197 150.435C200.464 150.278 200.78 150.239 201.074 150.326C201.369 150.413 201.619 150.62 201.769 150.901L207.185 161.066C207.335 161.347 207.372 161.68 207.289 161.99C207.206 162.3 207.01 162.563 206.743 162.721Z" fill="#AAA7A7"/>
<path d="M243.168 150.832L202.253 174.993C202.02 175.137 201.744 175.183 201.48 175.121C201.216 175.059 200.985 174.894 200.832 174.659C200.758 174.535 200.708 174.396 200.686 174.251C200.663 174.106 200.67 173.958 200.704 173.815C200.738 173.673 200.799 173.539 200.884 173.423C200.969 173.306 201.076 173.209 201.197 173.137L242.594 148.691C243.936 148.992 243.95 150.37 243.168 150.832Z" fill="#AAA7A7"/>
<path d="M245.807 155.784L204.891 179.945C204.658 180.089 204.382 180.135 204.118 180.073C203.855 180.011 203.623 179.846 203.471 179.611C203.396 179.487 203.346 179.348 203.324 179.203C203.302 179.058 203.308 178.91 203.342 178.767C203.376 178.625 203.438 178.491 203.523 178.375C203.607 178.258 203.714 178.161 203.836 178.089L245.232 153.644C246.575 153.944 246.588 155.322 245.807 155.784Z" fill="#AAA7A7"/>
<path d="M248.443 160.733L207.528 184.894C207.295 185.038 207.019 185.084 206.755 185.022C206.491 184.96 206.26 184.794 206.107 184.56C206.033 184.436 205.983 184.297 205.961 184.152C205.939 184.007 205.945 183.858 205.979 183.716C206.013 183.574 206.075 183.44 206.159 183.323C206.244 183.207 206.351 183.11 206.472 183.038L247.869 158.592C249.211 158.893 249.225 160.271 248.443 160.733Z" fill="#AAA7A7"/>
<path d="M251.082 165.684L210.166 189.845C209.933 189.99 209.657 190.035 209.393 189.973C209.13 189.911 208.898 189.746 208.746 189.511C208.671 189.387 208.621 189.248 208.599 189.103C208.577 188.958 208.583 188.81 208.617 188.668C208.651 188.525 208.713 188.392 208.798 188.275C208.883 188.158 208.989 188.061 209.111 187.989L250.507 163.544C251.85 163.845 251.863 165.223 251.082 165.684Z" fill="#AAA7A7"/>
<path d="M253.719 170.633L212.803 194.795C212.57 194.939 212.294 194.985 212.03 194.923C211.767 194.86 211.535 194.695 211.383 194.461C211.308 194.336 211.258 194.198 211.236 194.053C211.214 193.908 211.22 193.759 211.254 193.617C211.288 193.475 211.35 193.341 211.435 193.224C211.519 193.108 211.626 193.011 211.748 192.939L253.144 168.493C254.487 168.794 254.5 170.172 253.719 170.633Z" fill="#AAA7A7"/>
<path d="M246.581 189.18C246.803 188.663 246.916 188.1 246.91 187.532C246.904 186.964 246.779 186.404 246.546 185.892C246.312 185.38 245.974 184.929 245.557 184.569C245.139 184.209 244.652 183.95 244.129 183.81L243.016 170.051L237.665 174.496L239.542 186.88C239.377 187.82 239.545 188.792 240.015 189.61C240.484 190.429 241.223 191.038 242.091 191.321C242.958 191.605 243.895 191.544 244.722 191.149C245.55 190.754 246.211 190.054 246.581 189.18Z" fill="#FFB8B8"/>
<path d="M243.117 182.369L238.673 182.927C238.447 182.955 238.218 182.934 238 182.865C237.783 182.796 237.581 182.68 237.408 182.525C237.234 182.37 237.093 182.179 236.993 181.964C236.894 181.749 236.837 181.515 236.827 181.275L236.179 165.491L227.755 141.263C227.417 140.511 227.263 139.683 227.307 138.852C227.351 138.022 227.591 137.216 228.005 136.509C228.212 136.167 228.448 135.845 228.711 135.55C229.229 134.962 229.875 134.515 230.593 134.246C231.311 133.978 232.08 133.896 232.835 134.008C233.612 134.117 234.353 134.42 234.997 134.891C235.641 135.362 236.169 135.988 236.537 136.717L242.031 148.836C244.329 153.906 245.414 159.49 245.191 165.102L244.572 180.716C244.555 181.124 244.403 181.514 244.141 181.816C243.879 182.117 243.524 182.312 243.139 182.366L243.117 182.369Z" fill="#4BBF1E"/>
<path d="M258.9 250.586L254.78 252.49L245.843 236.664L251.924 233.854L258.9 250.586Z" fill="#FFB8B8"/>
<path d="M261.705 254.306L248.419 260.445L248.345 260.268C248.047 259.553 247.885 258.784 247.87 258.003C247.854 257.222 247.985 256.446 248.254 255.719C248.524 254.991 248.926 254.327 249.44 253.763C249.953 253.2 250.567 252.748 251.246 252.434L259.361 248.684L261.705 254.306Z" fill="#2F2E41"/>
<path d="M203.582 255.853H199.082L196.941 237.58L203.582 237.58L203.582 255.853Z" fill="#FFB8B8"/>
<path d="M204.729 260.445L190.219 260.445V260.251C190.219 259.471 190.365 258.697 190.649 257.976C190.933 257.255 191.349 256.599 191.873 256.047C192.398 255.495 193.02 255.057 193.706 254.758C194.391 254.46 195.125 254.306 195.867 254.306L204.729 254.306L204.729 260.445Z" fill="#2F2E41"/>
<path d="M247.393 249.606L222.325 190.713C222.28 190.603 222.203 190.51 222.106 190.448C222.008 190.385 221.895 190.356 221.781 190.365C221.667 190.373 221.558 190.419 221.47 190.495C221.382 190.571 221.318 190.675 221.288 190.791L206.015 247.674C205.914 248.072 205.681 248.419 205.359 248.653C205.037 248.887 204.646 248.991 204.256 248.948L195.915 248.07C195.485 248.023 195.09 247.801 194.813 247.451C194.536 247.102 194.399 246.653 194.432 246.199C197.085 211.458 201.268 178.669 213.798 157.205L213.864 157.09L232.817 161.003L258.12 245.827C258.245 246.264 258.202 246.735 258.001 247.14C257.801 247.544 257.457 247.85 257.045 247.991L249.415 250.573C249.024 250.707 248.6 250.682 248.226 250.503C247.852 250.324 247.555 250.004 247.393 249.606Z" fill="#2F2E41"/>
<path d="M223.025 127.037C228.004 127.037 232.04 122.787 232.04 117.546C232.04 112.304 228.004 108.055 223.025 108.055C218.046 108.055 214.01 112.304 214.01 117.546C214.01 122.787 218.046 127.037 223.025 127.037Z" fill="#FFB8B8"/>
<path d="M212.633 158.848L212.518 158.823L212.491 158.703C211.276 153.304 211.247 147.412 212.405 141.191C212.992 138.011 214.626 135.152 217.019 133.116C219.412 131.081 222.411 129.999 225.487 130.063C228.825 130.134 232.01 131.545 234.392 134.008C236.774 136.47 238.172 139.798 238.3 143.31C238.686 154.01 234.533 163.286 234.491 163.379L234.429 163.514L212.633 158.848Z" fill="#4BBF1E"/>
<path d="M188.466 176.903C188.999 176.82 189.509 176.615 189.96 176.302C190.41 175.989 190.79 175.576 191.072 175.092C191.354 174.608 191.532 174.064 191.593 173.5C191.654 172.935 191.597 172.364 191.426 171.825L201.809 163.388L195.362 161.06L186.49 169.428C185.65 169.791 184.965 170.466 184.566 171.325C184.167 172.185 184.081 173.168 184.324 174.089C184.568 175.011 185.124 175.806 185.887 176.325C186.65 176.843 187.568 177.049 188.466 176.903Z" fill="#FFB8B8"/>
<path d="M194.137 170.541C193.799 170.751 193.401 170.827 193.014 170.756C192.627 170.684 192.278 170.469 192.028 170.149L189.176 166.518C189.031 166.334 188.924 166.12 188.861 165.89C188.798 165.66 188.781 165.418 188.811 165.181C188.841 164.944 188.917 164.716 189.035 164.511C189.153 164.306 189.309 164.129 189.495 163.99L201.748 154.868L216.531 134.29C216.949 133.584 217.527 132.999 218.214 132.588C218.9 132.177 219.674 131.954 220.464 131.937C220.848 131.935 221.233 131.97 221.611 132.042C222.361 132.183 223.068 132.512 223.672 133.002C224.275 133.492 224.756 134.129 225.076 134.857C225.41 135.604 225.57 136.424 225.542 137.249C225.515 138.074 225.301 138.88 224.918 139.6L213.972 158.264L213.948 158.304L194.137 170.541Z" fill="#4BBF1E"/>
<path d="M224.637 116.957C223.972 115.806 222.506 115.481 221.233 115.613C219.96 115.744 218.722 116.215 217.443 116.204C213.892 116.175 211.15 111.618 212.643 108.226C213.868 105.443 216.926 104.222 219.693 103.263C225.494 101.252 232.157 99.3206 237.421 102.58C239.099 103.65 240.475 105.172 241.407 106.988C242.339 108.805 242.793 110.85 242.723 112.914C242.605 115.479 241.672 118.114 242.461 120.545C243.372 123.349 246.259 124.853 248.987 125.581C253.77 126.856 258.813 126.651 263.626 127.795C268.439 128.939 273.37 131.977 274.668 136.988C275.52 140.28 274.631 143.824 273.158 146.863C271.656 149.964 269.568 152.71 267.023 154.931C264.477 157.153 261.528 158.804 258.355 159.784C255.182 160.764 251.853 161.051 248.571 160.629C245.288 160.207 242.123 159.084 239.267 157.328C233.449 153.752 229.248 147.707 226.744 141.122C225.324 137.281 224.325 133.282 223.765 129.202C223.204 125.384 223.68 121.525 224.695 117.811C224.744 117.673 224.763 117.525 224.753 117.378C224.743 117.23 224.703 117.087 224.637 116.957Z" fill="#2F2E41"/>
<path d="M257.16 261H182.979C182.876 261 182.776 260.957 182.703 260.88C182.63 260.803 182.589 260.698 182.589 260.589C182.589 260.48 182.63 260.375 182.703 260.298C182.776 260.221 182.876 260.178 182.979 260.178H257.16C257.263 260.178 257.363 260.221 257.436 260.298C257.509 260.375 257.55 260.48 257.55 260.589C257.55 260.698 257.509 260.803 257.436 260.88C257.363 260.957 257.263 261 257.16 261Z" fill="#AAA7A7"/>
</g>
<defs>
<clipPath id="clip0_9_13">
<rect width="275" height="261" rx="4" fill="white"/>
</clipPath>
</defs>
</svg>
